PathFileType	4	(X/Y/Z)	/Users/itak/Documents/Research/Walk-IL/dataset/trc/00290_00010.trc
DataRate	CameraRate	NumFrames	NumMarkers	Units	OrigDataRate	OrigDataStartFrame	OrigNumFrames
100.000000	100.000000	4	53	mm	100.000000	252	674
Frame#	Time	RPSI			LPSI			L3			STRN			T10			C7			CLAV			RBAK			LBAK			LSHO			LUPA			LAEL			LAOL			LWTS			LWPS			LFRA			LHPS			RSHO			RUPA			RAEL			RAOL			RWTS			RWPS			RFRA			RIFD			RHTS			RHPS			RBHD			LFHD			RFHD			LBHD			LHIP			RHIP			RASI			LASI			LKNE			LTHI			LANK			LTIP			LTOE			LMT1			LMT5			LHEE			RKNE			RTHI			RANK			RTIP			RTOE			RMT1			RMT5			RHEE			LIFD			LHTS			
		X1	Y1	Z1	X2	Y2	Z2	X3	Y3	Z3	X4	Y4	Z4	X5	Y5	Z5	X6	Y6	Z6	X7	Y7	Z7	X8	Y8	Z8	X9	Y9	Z9	X10	Y10	Z10	X11	Y11	Z11	X12	Y12	Z12	X13	Y13	Z13	X14	Y14	Z14	X15	Y15	Z15	X16	Y16	Z16	X17	Y17	Z17	X18	Y18	Z18	X19	Y19	Z19	X20	Y20	Z20	X21	Y21	Z21	X22	Y22	Z22	X23	Y23	Z23	X24	Y24	Z24	X25	Y25	Z25	X26	Y26	Z26	X27	Y27	Z27	X28	Y28	Z28	X29	Y29	Z29	X30	Y30	Z30	X31	Y31	Z31	X32	Y32	Z32	X33	Y33	Z33	X34	Y34	Z34	X35	Y35	Z35	X36	Y36	Z36	X37	Y37	Z37	X38	Y38	Z38	X39	Y39	Z39	X40	Y40	Z40	X41	Y41	Z41	X42	Y42	Z42	X43	Y43	Z43	X44	Y44	Z44	X45	Y45	Z45	X46	Y46	Z46	X47	Y47	Z47	X48	Y48	Z48	X49	Y49	Z49	X50	Y50	Z50	X51	Y51	Z51	X52	Y52	Z52	X53	Y53	Z53	

253	2.52	-797.2107543945312	982.1324462890625	-53.02927780151367	-946.6596069335938	980.8947143554688	-144.4344940185547	-862.83056640625	1050.97314453125	-109.5581130981445	-742.8383178710938	1233.394653320312	-319.9414978027344	-869.8062744140625	1165.858520507812	-87.62066650390625	-859.7421875	1411.267456054688	-130.9988098144531	-778.1559448242188	1330.80810546875	-263.4759216308594	-819.3751831054688	1274.552124023438	-45.13774490356445	-958.0077514648438	1376.395751953125	-168.9658660888672	-960.0082397460938	1385.382934570312	-273.5469055175781	-1044.467529296875	1274.631713867188	-268.0359191894531	-1066.745483398438	1074.110717773438	-239.05859375	-1030.573974609375	1073.27880859375	-160.1494140625	-1013.955383300781	836.3910522460938	-242.3923950195312	-1085.312133789062	833.6654052734375	-232.4817199707031	-1080.025756835938	969.18212890625	-233.1287841796875	-1088.724609375	748.1201782226562	-207.0351715087891	-691.28271484375	1387.598266601562	-108.7520446777344	-635.8384399414062	1329.025268554688	-73.55974578857422	-552.2384643554688	1071.433837890625	-57.27357864379883	-644.2811279296875	1052.230224609375	-42.63862228393555	-612.9473266601562	943.52001953125	-261.9825134277344	-540.790283203125	911.2224731445312	-232.3079528808594	-538.8941040039062	1021.734497070312	-109.9963150024414	-623.2521362304688	795.241455078125	-375.3279113769531	-603.9698486328125	865.2932739257812	-353.4926452636719	-552.6343383789062	834.1245727539062	-315.3766784667969	-808.0907592773438	1565.81689453125	-108.7369384765625	-758.8728637695312	1611.322143554688	-311.2239990234375	-697.3761596679688	1603.889770507812	-241.1033477783203	-904.1060180664062	1567.399169921875	-220.6834106445312	-994.0715942382812	940.8818969726562	-256.4128112792969	-658.5186767578125	925.3590698242188	-85.30973815917969	-663.0933837890625	937.1314697265625	-221.4380035400391	-879.5287475585938	947.9073486328125	-346.3862915039062	-900.3402099609375	518.79541015625	-463.9901733398438	-941.1749267578125	646.028076171875	-409.3223571777344	-983.5369873046875	72.40749359130859	-488.8762512207031	-948.4775390625	296.7855834960938	-486.3771667480469	-807.34716796875	79.9886474609375	-603.3897705078125	-821.6436157226562	53.29135131835938	-527.2705078125	-912.73828125	75.88539886474609	-588.31884765625	-970.7986450195312	58.34632873535156	-417.1947326660156	-768.0242309570312	459.1752319335938	-173.1065216064453	-670.3973388671875	708.2682495117188	-160.6671142578125	-905.3373413085938	46.51559448242188	-91.52635192871094	-813.9076538085938	337.5576171875	-186.6379547119141	-952.1919555664062	45.53899765014648	-291.0158081054688	-991.5576782226562	42.9644775390625	-233.0718078613281	-880.8424682617188	39.28955459594727	-196.1557464599609	-957.7491455078125	41.06718063354492	-41.63764572143555	-1032.004516601562	660.4375610351562	-187.2428741455078	-1031.6630859375	735.0176391601562	-236.6199035644531	
254	2.53	-797.0364990234375	980.8580322265625	-61.17919158935547	-945.1640014648438	979.1045532226562	-154.9771881103516	-861.2962036132812	1049.812377929688	-118.1064758300781	-738.8419189453125	1232.192504882812	-326.8886413574219	-867.7802124023438	1165.005493164062	-95.90904235839844	-856.9246826171875	1410.248291015625	-139.3287353515625	-774.4530639648438	1329.703125	-270.87890625	-817.4601440429688	1273.604614257812	-52.9449348449707	-954.9158935546875	1375.595581054688	-178.1412200927734	-956.03173828125	1384.61572265625	-282.740478515625	-1040.880126953125	1274.240844726562	-277.1466979980469	-1063.40966796875	1074.051391601562	-246.1142883300781	-1027.230590820312	1073.911254882812	-167.2528228759766	-1011.496154785156	835.6398315429688	-245.5144958496094	-1083.13818359375	833.5602416992188	-236.2311553955078	-1077.093872070312	969.2673950195312	-238.9796752929688	-1087.145263671875	748.5550537109375	-208.7306823730469	-688.7664184570312	1386.411376953125	-115.5756759643555	-633.498291015625	1327.914794921875	-80.0394287109375	-548.5972900390625	1070.642211914062	-64.42105102539062	-640.58056640625	1050.750366210938	-50.16660690307617	-609.5474243164062	948.5703125	-272.2426452636719	-537.77587890625	914.8745727539062	-243.5717620849609	-535.2607421875	1022.050720214844	-118.2068328857422	-620.8068237304688	804.0360717773438	-390.1224975585938	-600.9389038085938	873.2233276367188	-366.1593933105469	-550.063720703125	840.4714965820312	-329.0671691894531	-806.028076171875	1564.434814453125	-116.4175720214844	-755.8212890625	1610.574462890625	-318.5233459472656	-694.7169799804688	1603.314819335938	-248.0180969238281	-901.414306640625	1565.774536132812	-228.9726409912109	-991.1388549804688	939.5247192382812	-267.108642578125	-657.80322265625	924.3584594726562	-91.49034118652344	-660.59814453125	936.2542724609375	-227.2665100097656	-875.1612548828125	947.142333984375	-355.3346252441406	-894.0468139648438	516.7220458984375	-471.6468811035156	-936.0787963867188	644.027587890625	-418.1190795898438	-961.7869262695312	69.00592041015625	-515.125732421875	-935.2301635742188	294.5343933105469	-502.1771545410156	-782.7288208007812	87.39760589599609	-623.819580078125	-798.2002563476562	57.50031280517578	-549.25244140625	-888.2437133789062	78.58624267578125	-612.2726440429688	-950.5879516601562	52.99716567993164	-443.5805358886719	-766.4985961914062	458.1231384277344	-177.4921112060547	-668.9019775390625	707.2704467773438	-165.8952941894531	-905.5778198242188	46.66057586669922	-91.63362121582031	-812.8111572265625	336.3462524414062	-190.0974578857422	-952.07177734375	45.27810287475586	-291.2798767089844	-991.5143432617188	42.90750503540039	-233.2458648681641	-880.8643798828125	39.26773071289062	-196.2191314697266	-957.9830322265625	41.52305221557617	-41.80496215820312	-1030.951904296875	661.2478637695312	-185.8495941162109	-1029.737548828125	734.4473876953125	-237.2544250488281	
255	2.54	-796.615478515625	979.3998413085938	-69.35395050048828	-943.4865112304688	977.1614379882812	-165.2897491455078	-859.586669921875	1048.414794921875	-126.649658203125	-734.8831787109375	1230.828735351562	-333.9339904785156	-865.6272583007812	1163.986450195312	-104.1108627319336	-853.976318359375	1409.065795898438	-147.6733551025391	-770.7620239257812	1328.429321289062	-278.304443359375	-815.4580688476562	1272.469482421875	-60.7957878112793	-951.6524658203125	1374.65087890625	-187.2492065429688	-952.0003051757812	1383.6767578125	-291.8832092285156	-1037.259155273438	1273.703491210938	-286.2125244140625	-1060.206909179688	1073.86181640625	-253.3240661621094	-1024.071411132812	1074.33203125	-174.4722442626953	-1009.215454101562	834.869384765625	-249.2082061767578	-1081.042846679688	833.3687133789062	-240.4897613525391	-1074.302368164062	969.2203979492188	-245.1114501953125	-1085.648681640625	748.9027099609375	-211.1174468994141	-686.1327514648438	1385.013549804688	-122.4702835083008	-631.0635986328125	1326.561157226562	-86.57193756103516	-545.0263061523438	1069.567626953125	-71.48200225830078	-636.96923828125	1049.02099609375	-57.67612457275391	-606.1375122070312	953.2720947265625	-282.1919555664062	-534.7092895507812	918.2559204101562	-254.4860382080078	-531.652099609375	1022.015625	-126.2942733764648	-618.2589111328125	812.5821533203125	-404.4845581054688	-597.7726440429688	880.8386840820312	-378.3936157226562	-547.283447265625	846.6251831054688	-342.3083801269531	-803.816162109375	1562.851684570312	-124.1482315063477	-752.657958984375	1609.667358398438	-325.8621520996094	-691.94140625	1602.54296875	-254.9998168945312	-898.5948486328125	1563.99658203125	-237.2815399169922	-988.0602416992188	937.9113159179688	-277.6680603027344	-656.852783203125	923.1918334960938	-97.89423370361328	-657.8656005859375	935.2077026367188	-233.3192138671875	-870.7819213867188	946.25634765625	-364.2101135253906	-887.8060302734375	514.4161987304688	-479.1337280273438	-931.0433349609375	641.8142700195312	-426.8405151367188	-939.588623046875	66.39664459228516	-539.6800537109375	-921.8292846679688	292.4508056640625	-517.0755004882812	-758.2319946289062	95.15431976318359	-642.15771484375	-774.7471313476562	62.24474716186523	-569.2138061523438	-863.5792236328125	81.83748626708984	-634.2962646484375	-929.828369140625	48.54441452026367	-468.3121643066406	-764.8544921875	456.9608764648438	-181.8825225830078	-667.2017822265625	706.1567993164062	-171.2052612304688	-905.9550170898438	46.79214477539062	-91.73690032958984	-811.6163940429688	335.0484924316406	-193.5460205078125	-951.931884765625	45.03786849975586	-291.5437622070312	-991.4910278320312	42.8638916015625	-233.4629669189453	-880.9230346679688	39.27157211303711	-196.2699127197266	-958.37109375	42.04341888427734	-42.01396179199219	-1029.887084960938	662.0342407226562	-185.3367309570312	-1027.934692382812	733.896728515625	-238.6375579833984	
256	2.55	-795.9512939453125	977.7618408203125	-77.56508636474609	-941.6272583007812	975.0724487304688	-175.3875427246094	-857.7161254882812	1046.810302734375	-135.1569366455078	-730.93359375	1229.316040039062	-341.0882263183594	-863.3604736328125	1162.79931640625	-112.2562713623047	-850.9072265625	1407.728759765625	-156.0305633544922	-767.0658569335938	1326.984619140625	-285.7620544433594	-813.3793334960938	1271.156616210938	-68.69340515136719	-948.2193603515625	1373.559448242188	-196.2869262695312	-947.9185180664062	1382.558959960938	-300.9757080078125	-1033.600708007812	1273.00390625	-295.23974609375	-1057.14697265625	1073.51708984375	-260.697265625	-1021.103271484375	1074.522338867188	-181.8134613037109	-1007.142456054688	834.048583984375	-253.5055694580078	-1079.032104492188	833.0552978515625	-245.2628021240234	-1071.656616210938	969.0165405273438	-251.5302886962891	-1084.235107421875	749.11328125	-214.2166595458984	-683.3779907226562	1383.41552734375	-129.4320373535156	-628.5355224609375	1324.964965820312	-93.1585693359375	-541.5321044921875	1068.209350585938	-78.47095489501953	-633.4619140625	1047.051879882812	-65.18825531005859	-602.7158813476562	957.59716796875	-291.8691711425781	-531.5562744140625	921.356689453125	-265.0548706054688	-528.0728149414062	1021.639221191406	-134.2596435546875	-615.5886840820312	820.7798461914062	-418.38671875	-594.4574584960938	888.0548706054688	-390.1957702636719	-544.276123046875	852.5144653320312	-355.0643005371094	-801.4646606445312	1561.076171875	-131.931884765625	-749.3824462890625	1608.613891601562	-333.2396545410156	-689.0499267578125	1601.583984375	-262.0478820800781	-895.6508178710938	1562.074340820312	-245.6152191162109	-984.842529296875	936.0723266601562	-288.1139221191406	-655.6763305664062	921.8703002929688	-104.5092697143555	-654.9000854492188	934.0042114257812	-239.5891876220703	-866.3843994140625	945.2564086914062	-373.0343933105469	-881.5083618164062	511.9400024414062	-486.5336608886719	-926.0037841796875	639.4038696289062	-435.529541015625	-917.2799682617188	64.49302673339844	-562.466796875	-908.3242797851562	290.5650634765625	-531.1354370117188	-734.102783203125	103.0005645751953	-658.3329467773438	-751.5982055664062	67.31353759765625	-587.0537109375	-839.0176391601562	85.45125579833984	-654.3460083007812	-908.9443969726562	44.93782806396484	-491.2982482910156	-763.1266479492188	455.7018127441406	-186.2376708984375	-665.3252563476562	704.92138671875	-176.5987548828125	-906.48583984375	46.92256927490234	-91.84494781494141	-810.3590087890625	333.6861267089844	-196.9526214599609	-951.785888671875	44.82026290893555	-291.8147888183594	-991.4979858398438	42.84214019775391	-233.7323303222656	-881.029052734375	39.30997085571289	-196.3091125488281	-958.9308471679688	42.63870239257812	-42.26758193969727	-1028.818603515625	662.7233276367188	-185.7727508544922	-1026.263549804688	733.3181762695312	-240.8164215087891	
